<?xml version="1.0" encoding="UTF-8" standalone="no"?><svg xmlns="http://www.w3.org/2000/svg" xmlns:xlink="http://www.w3.org/1999/xlink" contentStyleType="text/css" height="520px" preserveAspectRatio="none" style="width:2588px;height:520px;background:#FFFFFF;" version="1.1" viewBox="0 0 2588 520" width="2588px" zoomAndPan="magnify"><defs/><g><!--MD5=[86cbce8df1eb9d604fbbb2fa357940f8]
cluster view--><g id="cluster_view"><path d="M8.5,6 L46.5,6 A3.75,3.75 0 0 1 49,8.5 L56,28.2969 L2578.5,28.2969 A2.5,2.5 0 0 1 2581,30.7969 L2581,511 A2.5,2.5 0 0 1 2578.5,513.5 L8.5,513.5 A2.5,2.5 0 0 1 6,511 L6,8.5 A2.5,2.5 0 0 1 8.5,6 " fill="none" style="stroke:#000000;stroke-width:1.5;"/><line style="stroke:#000000;stroke-width:1.5;" x1="6" x2="56" y1="28.2969" y2="28.2969"/><text fill="#000000" font-family="sans-serif" font-size="14" font-weight="bold" lengthAdjust="spacing" textLength="37" x="10" y="20.9951">view</text></g><!--MD5=[62f6dec783f49ef553b2dcb129fbb38d]
cluster clientcontroller--><g id="cluster_clientcontroller"><path d="M1694.5,49 L1815.5,49 A3.75,3.75 0 0 1 1818,51.5 L1825,71.2969 L2554.5,71.2969 A2.5,2.5 0 0 1 2557,73.7969 L2557,256 A2.5,2.5 0 0 1 2554.5,258.5 L1694.5,258.5 A2.5,2.5 0 0 1 1692,256 L1692,51.5 A2.5,2.5 0 0 1 1694.5,49 " fill="none" style="stroke:#000000;stroke-width:1.5;"/><line style="stroke:#000000;stroke-width:1.5;" x1="1692" x2="1825" y1="71.2969" y2="71.2969"/><text fill="#000000" font-family="sans-serif" font-size="14" font-weight="bold" lengthAdjust="spacing" textLength="120" x="1696" y="63.9951">clientcontroller</text></g><!--MD5=[360c1f17fd567815a93c7b66b8857514]
cluster lib--><g id="cluster_lib"><path d="M904.5,49 L923.5,49 A3.75,3.75 0 0 1 926,51.5 L933,71.2969 L1665.5,71.2969 A2.5,2.5 0 0 1 1668,73.7969 L1668,487 A2.5,2.5 0 0 1 1665.5,489.5 L904.5,489.5 A2.5,2.5 0 0 1 902,487 L902,51.5 A2.5,2.5 0 0 1 904.5,49 " fill="none" style="stroke:#000000;stroke-width:1.5;"/><line style="stroke:#000000;stroke-width:1.5;" x1="902" x2="933" y1="71.2969" y2="71.2969"/><text fill="#000000" font-family="sans-serif" font-size="14" font-weight="bold" lengthAdjust="spacing" textLength="18" x="906" y="63.9951">lib</text></g><!--MD5=[33e489f0c30c9d3f247f5fb2f07b0b20]
cluster scenecontrollers--><g id="cluster_scenecontrollers"><path d="M1877.5,282.5 L2012.5,282.5 A3.75,3.75 0 0 1 2015,285 L2022,304.7969 L2313.5,304.7969 A2.5,2.5 0 0 1 2316,307.2969 L2316,487 A2.5,2.5 0 0 1 2313.5,489.5 L1877.5,489.5 A2.5,2.5 0 0 1 1875,487 L1875,285 A2.5,2.5 0 0 1 1877.5,282.5 " fill="none" style="stroke:#000000;stroke-width:1.5;"/><line style="stroke:#000000;stroke-width:1.5;" x1="1875" x2="2022" y1="304.7969" y2="304.7969"/><text fill="#000000" font-family="sans-serif" font-size="14" font-weight="bold" lengthAdjust="spacing" textLength="134" x="1879" y="297.4951">scenecontrollers</text></g><!--MD5=[61722f85a0a7778945b344ac410c9ee1]
cluster viewcontroller--><g id="cluster_viewcontroller"><path d="M32.5,282.5 L147.5,282.5 A3.75,3.75 0 0 1 150,285 L157,304.7969 L875.5,304.7969 A2.5,2.5 0 0 1 878,307.2969 L878,487 A2.5,2.5 0 0 1 875.5,489.5 L32.5,489.5 A2.5,2.5 0 0 1 30,487 L30,285 A2.5,2.5 0 0 1 32.5,282.5 " fill="none" style="stroke:#000000;stroke-width:1.5;"/><line style="stroke:#000000;stroke-width:1.5;" x1="30" x2="157" y1="304.7969" y2="304.7969"/><text fill="#000000" font-family="sans-serif" font-size="14" font-weight="bold" lengthAdjust="spacing" textLength="114" x="34" y="297.4951">viewcontroller</text></g><!--MD5=[db3170b8313bf70303600a68db1112cb]
class Launcher--><g id="elem_Launcher"><rect codeLine="2" fill="#F1F1F1" height="48" id="Launcher" rx="2.5" ry="2.5" style="stroke:#181818;stroke-width:0.5;" width="96" x="617" y="84"/><ellipse cx="632" cy="100" fill="#ADD1B2" rx="11" ry="11" style="stroke:#181818;stroke-width:1.0;"/><path d="M634.9688,105.6406 Q634.3906,105.9375 633.75,106.0781 Q633.1094,106.2344 632.4063,106.2344 Q629.9063,106.2344 628.5781,104.5938 Q627.2656,102.9375 627.2656,99.8125 Q627.2656,96.6875 628.5781,95.0313 Q629.9063,93.375 632.4063,93.375 Q633.1094,93.375 633.75,93.5313 Q634.4063,93.6875 634.9688,93.9844 L634.9688,96.7031 Q634.3438,96.125 633.75,95.8594 Q633.1563,95.5781 632.5313,95.5781 Q631.1875,95.5781 630.5,96.6563 Q629.8125,97.7188 629.8125,99.8125 Q629.8125,101.9063 630.5,102.9844 Q631.1875,104.0469 632.5313,104.0469 Q633.1563,104.0469 633.75,103.7813 Q634.3438,103.5 634.9688,102.9219 L634.9688,105.6406 Z " fill="#000000"/><text fill="#000000" font-family="sans-serif" font-size="14" lengthAdjust="spacing" textLength="64" x="646" y="104.8467">Launcher</text><line style="stroke:#181818;stroke-width:0.5;" x1="618" x2="712" y1="116" y2="116"/><line style="stroke:#181818;stroke-width:0.5;" x1="618" x2="712" y1="124" y2="124"/></g><path d="M365,81.5 L395,81.5 A3.75,3.75 0 0 1 397.5,84 L404.5,103.7969 L409,103.7969 A2.5,2.5 0 0 1 411.5,106.2969 L411.5,131.5938 A2.5,2.5 0 0 1 409,134.0938 L365,134.0938 A2.5,2.5 0 0 1 362.5,131.5938 L362.5,84 A2.5,2.5 0 0 1 365,81.5 " fill="#F1F1F1" style="stroke:#181818;stroke-width:0.5;"/><line style="stroke:#181818;stroke-width:0.5;" x1="362.5" x2="404.5" y1="103.7969" y2="103.7969"/><text fill="#000000" font-family="sans-serif" font-size="14" lengthAdjust="spacing" textLength="29" x="366.5" y="96.4951">json</text><!--MD5=[c0effcb7a5dacc721859ade9ed7e470a]
class EClientInformation--><g id="elem_EClientInformation"><rect codeLine="10" fill="#F1F1F1" height="48" id="EClientInformation" rx="2.5" ry="2.5" style="stroke:#181818;stroke-width:0.5;" width="157" x="2042.5" y="84"/><ellipse cx="2057.5" cy="100" fill="#EB937F" rx="11" ry="11" style="stroke:#181818;stroke-width:1.0;"/><path d="M2061.6094,106 L2053.8906,106 L2053.8906,93.6094 L2061.6094,93.6094 L2061.6094,95.7656 L2056.3438,95.7656 L2056.3438,98.4375 L2061.1094,98.4375 L2061.1094,100.5938 L2056.3438,100.5938 L2056.3438,103.8438 L2061.6094,103.8438 L2061.6094,106 Z " fill="#000000"/><text fill="#000000" font-family="sans-serif" font-size="14" lengthAdjust="spacing" textLength="125" x="2071.5" y="104.8467">EClientInformation</text><line style="stroke:#181818;stroke-width:0.5;" x1="2043.5" x2="2198.5" y1="116" y2="116"/><line style="stroke:#181818;stroke-width:0.5;" x1="2043.5" x2="2198.5" y1="124" y2="124"/></g><!--MD5=[91b9b70886e34585e88f32c13abc33d3]
class EConnectionLoss--><g id="elem_EConnectionLoss"><rect codeLine="11" fill="#F1F1F1" height="48" id="EConnectionLoss" rx="2.5" ry="2.5" style="stroke:#181818;stroke-width:0.5;" width="153" x="2234.5" y="84"/><ellipse cx="2249.5" cy="100" fill="#EB937F" rx="11" ry="11" style="stroke:#181818;stroke-width:1.0;"/><path d="M2253.6094,106 L2245.8906,106 L2245.8906,93.6094 L2253.6094,93.6094 L2253.6094,95.7656 L2248.3438,95.7656 L2248.3438,98.4375 L2253.1094,98.4375 L2253.1094,100.5938 L2248.3438,100.5938 L2248.3438,103.8438 L2253.6094,103.8438 L2253.6094,106 Z " fill="#000000"/><text fill="#000000" font-family="sans-serif" font-size="14" lengthAdjust="spacing" textLength="121" x="2263.5" y="104.8467">EConnectionLoss</text><line style="stroke:#181818;stroke-width:0.5;" x1="2235.5" x2="2386.5" y1="116" y2="116"/><line style="stroke:#181818;stroke-width:0.5;" x1="2235.5" x2="2386.5" y1="124" y2="124"/></g><!--MD5=[6589d09bdc41a68f32458099b9578f6f]
class EGameState--><g id="elem_EGameState"><rect codeLine="12" fill="#F1F1F1" height="48" id="EGameState" rx="2.5" ry="2.5" style="stroke:#181818;stroke-width:0.5;" width="118" x="2423" y="84"/><ellipse cx="2438" cy="100" fill="#EB937F" rx="11" ry="11" style="stroke:#181818;stroke-width:1.0;"/><path d="M2442.1094,106 L2434.3906,106 L2434.3906,93.6094 L2442.1094,93.6094 L2442.1094,95.7656 L2436.8438,95.7656 L2436.8438,98.4375 L2441.6094,98.4375 L2441.6094,100.5938 L2436.8438,100.5938 L2436.8438,103.8438 L2442.1094,103.8438 L2442.1094,106 Z " fill="#000000"/><text fill="#000000" font-family="sans-serif" font-size="14" lengthAdjust="spacing" textLength="86" x="2452" y="104.8467">EGameState</text><line style="stroke:#181818;stroke-width:0.5;" x1="2424" x2="2540" y1="116" y2="116"/><line style="stroke:#181818;stroke-width:0.5;" x1="2424" x2="2540" y1="124" y2="124"/></g><!--MD5=[a6849e8a2c166de038666ac279ffb2e3]
class GameInstance--><g id="elem_GameInstance"><rect codeLine="13" fill="#F1F1F1" height="48" id="GameInstance" rx="2.5" ry="2.5" style="stroke:#181818;stroke-width:0.5;" width="132" x="1875" y="84"/><ellipse cx="1890" cy="100" fill="#A9DCDF" rx="11" ry="11" style="stroke:#181818;stroke-width:1.0;"/><path d="M1890.1094,95.3438 L1888.9531,100.4219 L1891.2813,100.4219 L1890.1094,95.3438 Z M1888.625,93.1094 L1891.6094,93.1094 L1894.9688,105.5 L1892.5156,105.5 L1891.75,102.4375 L1888.4688,102.4375 L1887.7188,105.5 L1885.2813,105.5 L1888.625,93.1094 Z " fill="#000000"/><text fill="#000000" font-family="sans-serif" font-size="14" font-style="italic" lengthAdjust="spacing" textLength="100" x="1904" y="104.8467">GameInstance</text><line style="stroke:#181818;stroke-width:0.5;" x1="1876" x2="2006" y1="116" y2="116"/><line style="stroke:#181818;stroke-width:0.5;" x1="1876" x2="2006" y1="124" y2="124"/></g><!--MD5=[b03f9ee5fb23a3592c9669df530467c1]
class GI_Agent--><g id="elem_GI_Agent"><rect codeLine="14" fill="#F1F1F1" height="48" id="GI_Agent" rx="2.5" ry="2.5" style="stroke:#181818;stroke-width:0.5;" width="94" x="1840" y="194.5"/><ellipse cx="1855" cy="210.5" fill="#ADD1B2" rx="11" ry="11" style="stroke:#181818;stroke-width:1.0;"/><path d="M1857.9688,216.1406 Q1857.3906,216.4375 1856.75,216.5781 Q1856.1094,216.7344 1855.4063,216.7344 Q1852.9063,216.7344 1851.5781,215.0938 Q1850.2656,213.4375 1850.2656,210.3125 Q1850.2656,207.1875 1851.5781,205.5313 Q1852.9063,203.875 1855.4063,203.875 Q1856.1094,203.875 1856.75,204.0313 Q1857.4063,204.1875 1857.9688,204.4844 L1857.9688,207.2031 Q1857.3438,206.625 1856.75,206.3594 Q1856.1563,206.0781 1855.5313,206.0781 Q1854.1875,206.0781 1853.5,207.1563 Q1852.8125,208.2188 1852.8125,210.3125 Q1852.8125,212.4063 1853.5,213.4844 Q1854.1875,214.5469 1855.5313,214.5469 Q1856.1563,214.5469 1856.75,214.2813 Q1857.3438,214 1857.9688,213.4219 L1857.9688,216.1406 Z " fill="#000000"/><text fill="#000000" font-family="sans-serif" font-size="14" lengthAdjust="spacing" textLength="62" x="1869" y="215.3467">GI_Agent</text><line style="stroke:#181818;stroke-width:0.5;" x1="1841" x2="1933" y1="226.5" y2="226.5"/><line style="stroke:#181818;stroke-width:0.5;" x1="1841" x2="1933" y1="234.5" y2="234.5"/></g><!--MD5=[37959323f88daacf02b764c4bcd5e064]
class GI_Human--><g id="elem_GI_Human"><rect codeLine="15" fill="#F1F1F1" height="48" id="GI_Human" rx="2.5" ry="2.5" style="stroke:#181818;stroke-width:0.5;" width="102" x="1969" y="194.5"/><ellipse cx="1984" cy="210.5" fill="#ADD1B2" rx="11" ry="11" style="stroke:#181818;stroke-width:1.0;"/><path d="M1986.9688,216.1406 Q1986.3906,216.4375 1985.75,216.5781 Q1985.1094,216.7344 1984.4063,216.7344 Q1981.9063,216.7344 1980.5781,215.0938 Q1979.2656,213.4375 1979.2656,210.3125 Q1979.2656,207.1875 1980.5781,205.5313 Q1981.9063,203.875 1984.4063,203.875 Q1985.1094,203.875 1985.75,204.0313 Q1986.4063,204.1875 1986.9688,204.4844 L1986.9688,207.2031 Q1986.3438,206.625 1985.75,206.3594 Q1985.1563,206.0781 1984.5313,206.0781 Q1983.1875,206.0781 1982.5,207.1563 Q1981.8125,208.2188 1981.8125,210.3125 Q1981.8125,212.4063 1982.5,213.4844 Q1983.1875,214.5469 1984.5313,214.5469 Q1985.1563,214.5469 1985.75,214.2813 Q1986.3438,214 1986.9688,213.4219 L1986.9688,216.1406 Z " fill="#000000"/><text fill="#000000" font-family="sans-serif" font-size="14" lengthAdjust="spacing" textLength="70" x="1998" y="215.3467">GI_Human</text><line style="stroke:#181818;stroke-width:0.5;" x1="1970" x2="2070" y1="226.5" y2="226.5"/><line style="stroke:#181818;stroke-width:0.5;" x1="1970" x2="2070" y1="234.5" y2="234.5"/></g><!--MD5=[2a3e75598ca0868884a6a52841a47ec4]
class RemotePlayer--><g id="elem_RemotePlayer"><rect codeLine="16" fill="#F1F1F1" height="48" id="RemotePlayer" rx="2.5" ry="2.5" style="stroke:#181818;stroke-width:0.5;" width="128" x="2106" y="194.5"/><ellipse cx="2121" cy="210.5" fill="#ADD1B2" rx="11" ry="11" style="stroke:#181818;stroke-width:1.0;"/><path d="M2123.9688,216.1406 Q2123.3906,216.4375 2122.75,216.5781 Q2122.1094,216.7344 2121.4063,216.7344 Q2118.9063,216.7344 2117.5781,215.0938 Q2116.2656,213.4375 2116.2656,210.3125 Q2116.2656,207.1875 2117.5781,205.5313 Q2118.9063,203.875 2121.4063,203.875 Q2122.1094,203.875 2122.75,204.0313 Q2123.4063,204.1875 2123.9688,204.4844 L2123.9688,207.2031 Q2123.3438,206.625 2122.75,206.3594 Q2122.1563,206.0781 2121.5313,206.0781 Q2120.1875,206.0781 2119.5,207.1563 Q2118.8125,208.2188 2118.8125,210.3125 Q2118.8125,212.4063 2119.5,213.4844 Q2120.1875,214.5469 2121.5313,214.5469 Q2122.1563,214.5469 2122.75,214.2813 Q2123.3438,214 2123.9688,213.4219 L2123.9688,216.1406 Z " fill="#000000"/><text fill="#000000" font-family="sans-serif" font-size="14" lengthAdjust="spacing" textLength="96" x="2135" y="215.3467">RemotePlayer</text><line style="stroke:#181818;stroke-width:0.5;" x1="2107" x2="2233" y1="226.5" y2="226.5"/><line style="stroke:#181818;stroke-width:0.5;" x1="2107" x2="2233" y1="234.5" y2="234.5"/></g><!--MD5=[2058330f230099b96646b8fb39db4711]
class HumanSL--><g id="elem_HumanSL"><rect codeLine="17" fill="#F1F1F1" height="48" id="HumanSL" rx="2.5" ry="2.5" style="stroke:#181818;stroke-width:0.5;" width="97" x="1707.5" y="194.5"/><ellipse cx="1722.5" cy="210.5" fill="#ADD1B2" rx="11" ry="11" style="stroke:#181818;stroke-width:1.0;"/><path d="M1725.4688,216.1406 Q1724.8906,216.4375 1724.25,216.5781 Q1723.6094,216.7344 1722.9063,216.7344 Q1720.4063,216.7344 1719.0781,215.0938 Q1717.7656,213.4375 1717.7656,210.3125 Q1717.7656,207.1875 1719.0781,205.5313 Q1720.4063,203.875 1722.9063,203.875 Q1723.6094,203.875 1724.25,204.0313 Q1724.9063,204.1875 1725.4688,204.4844 L1725.4688,207.2031 Q1724.8438,206.625 1724.25,206.3594 Q1723.6563,206.0781 1723.0313,206.0781 Q1721.6875,206.0781 1721,207.1563 Q1720.3125,208.2188 1720.3125,210.3125 Q1720.3125,212.4063 1721,213.4844 Q1721.6875,214.5469 1723.0313,214.5469 Q1723.6563,214.5469 1724.25,214.2813 Q1724.8438,214 1725.4688,213.4219 L1725.4688,216.1406 Z " fill="#000000"/><text fill="#000000" font-family="sans-serif" font-size="14" lengthAdjust="spacing" textLength="65" x="1736.5" y="215.3467">HumanSL</text><line style="stroke:#181818;stroke-width:0.5;" x1="1708.5" x2="1803.5" y1="226.5" y2="226.5"/><line style="stroke:#181818;stroke-width:0.5;" x1="1708.5" x2="1803.5" y1="234.5" y2="234.5"/></g><!--MD5=[e594f25e1f4e14d34bf5446ce37f123c]
class ServerListener--><g id="elem_ServerListener"><rect codeLine="18" fill="#F1F1F1" height="48" id="ServerListener" rx="2.5" ry="2.5" style="stroke:#181818;stroke-width:0.5;" width="131" x="1708.5" y="84"/><ellipse cx="1723.5" cy="100" fill="#A9DCDF" rx="11" ry="11" style="stroke:#181818;stroke-width:1.0;"/><path d="M1723.6094,95.3438 L1722.4531,100.4219 L1724.7813,100.4219 L1723.6094,95.3438 Z M1722.125,93.1094 L1725.1094,93.1094 L1728.4688,105.5 L1726.0156,105.5 L1725.25,102.4375 L1721.9688,102.4375 L1721.2188,105.5 L1718.7813,105.5 L1722.125,93.1094 Z " fill="#000000"/><text fill="#000000" font-family="sans-serif" font-size="14" font-style="italic" lengthAdjust="spacing" textLength="99" x="1737.5" y="104.8467">ServerListener</text><line style="stroke:#181818;stroke-width:0.5;" x1="1709.5" x2="1838.5" y1="116" y2="116"/><line style="stroke:#181818;stroke-width:0.5;" x1="1709.5" x2="1838.5" y1="124" y2="124"/></g><!--MD5=[2b96845a1a3b0d125ef8738af4baae63]
class ServerListenerFactory--><g id="elem_ServerListenerFactory"><rect codeLine="19" fill="#F1F1F1" height="48" id="ServerListenerFactory" rx="2.5" ry="2.5" style="stroke:#181818;stroke-width:0.5;" width="181" x="2269.5" y="194.5"/><ellipse cx="2284.5" cy="210.5" fill="#ADD1B2" rx="11" ry="11" style="stroke:#181818;stroke-width:1.0;"/><path d="M2287.4688,216.1406 Q2286.8906,216.4375 2286.25,216.5781 Q2285.6094,216.7344 2284.9063,216.7344 Q2282.4063,216.7344 2281.0781,215.0938 Q2279.7656,213.4375 2279.7656,210.3125 Q2279.7656,207.1875 2281.0781,205.5313 Q2282.4063,203.875 2284.9063,203.875 Q2285.6094,203.875 2286.25,204.0313 Q2286.9063,204.1875 2287.4688,204.4844 L2287.4688,207.2031 Q2286.8438,206.625 2286.25,206.3594 Q2285.6563,206.0781 2285.0313,206.0781 Q2283.6875,206.0781 2283,207.1563 Q2282.3125,208.2188 2282.3125,210.3125 Q2282.3125,212.4063 2283,213.4844 Q2283.6875,214.5469 2285.0313,214.5469 Q2285.6563,214.5469 2286.25,214.2813 Q2286.8438,214 2287.4688,213.4219 L2287.4688,216.1406 Z " fill="#000000"/><text fill="#000000" font-family="sans-serif" font-size="14" lengthAdjust="spacing" textLength="149" x="2298.5" y="215.3467">ServerListenerFactory</text><line style="stroke:#181818;stroke-width:0.5;" x1="2270.5" x2="2449.5" y1="226.5" y2="226.5"/><line style="stroke:#181818;stroke-width:0.5;" x1="2270.5" x2="2449.5" y1="234.5" y2="234.5"/></g><!--MD5=[46ba5c68ee09b667723f272d89e53f2e]
class EAgentDifficulty--><g id="elem_EAgentDifficulty"><rect codeLine="23" fill="#F1F1F1" height="48" id="EAgentDifficulty" rx="2.5" ry="2.5" style="stroke:#181818;stroke-width:0.5;" width="139" x="938.5" y="84"/><ellipse cx="953.5" cy="100" fill="#EB937F" rx="11" ry="11" style="stroke:#181818;stroke-width:1.0;"/><path d="M957.6094,106 L949.8906,106 L949.8906,93.6094 L957.6094,93.6094 L957.6094,95.7656 L952.3438,95.7656 L952.3438,98.4375 L957.1094,98.4375 L957.1094,100.5938 L952.3438,100.5938 L952.3438,103.8438 L957.6094,103.8438 L957.6094,106 Z " fill="#000000"/><text fill="#000000" font-family="sans-serif" font-size="14" lengthAdjust="spacing" textLength="107" x="967.5" y="104.8467">EAgentDifficulty</text><line style="stroke:#181818;stroke-width:0.5;" x1="939.5" x2="1076.5" y1="116" y2="116"/><line style="stroke:#181818;stroke-width:0.5;" x1="939.5" x2="1076.5" y1="124" y2="124"/></g><!--MD5=[49aea0caacab635f957d279533c9d103]
class EAnimation--><g id="elem_EAnimation"><rect codeLine="24" fill="#F1F1F1" height="48" id="EAnimation" rx="2.5" ry="2.5" style="stroke:#181818;stroke-width:0.5;" width="109" x="1112.5" y="84"/><ellipse cx="1127.5" cy="100" fill="#EB937F" rx="11" ry="11" style="stroke:#181818;stroke-width:1.0;"/><path d="M1131.6094,106 L1123.8906,106 L1123.8906,93.6094 L1131.6094,93.6094 L1131.6094,95.7656 L1126.3438,95.7656 L1126.3438,98.4375 L1131.1094,98.4375 L1131.1094,100.5938 L1126.3438,100.5938 L1126.3438,103.8438 L1131.6094,103.8438 L1131.6094,106 Z " fill="#000000"/><text fill="#000000" font-family="sans-serif" font-size="14" lengthAdjust="spacing" textLength="77" x="1141.5" y="104.8467">EAnimation</text><line style="stroke:#181818;stroke-width:0.5;" x1="1113.5" x2="1220.5" y1="116" y2="116"/><line style="stroke:#181818;stroke-width:0.5;" x1="1113.5" x2="1220.5" y1="124" y2="124"/></g><!--MD5=[29cdf21be0538806e81c42b44e8ac3da]
class EFigure--><g id="elem_EFigure"><rect codeLine="25" fill="#F1F1F1" height="48" id="EFigure" rx="2.5" ry="2.5" style="stroke:#181818;stroke-width:0.5;" width="84" x="1257" y="84"/><ellipse cx="1272" cy="100" fill="#EB937F" rx="11" ry="11" style="stroke:#181818;stroke-width:1.0;"/><path d="M1276.1094,106 L1268.3906,106 L1268.3906,93.6094 L1276.1094,93.6094 L1276.1094,95.7656 L1270.8438,95.7656 L1270.8438,98.4375 L1275.6094,98.4375 L1275.6094,100.5938 L1270.8438,100.5938 L1270.8438,103.8438 L1276.1094,103.8438 L1276.1094,106 Z " fill="#000000"/><text fill="#000000" font-family="sans-serif" font-size="14" lengthAdjust="spacing" textLength="52" x="1286" y="104.8467">EFigure</text><line style="stroke:#181818;stroke-width:0.5;" x1="1258" x2="1340" y1="116" y2="116"/><line style="stroke:#181818;stroke-width:0.5;" x1="1258" x2="1340" y1="124" y2="124"/></g><!--MD5=[6a193e2bf219ebc98bc5b7fbd61b66b5]
class EGamePhase--><g id="elem_EGamePhase"><rect codeLine="26" fill="#F1F1F1" height="48" id="EGamePhase" rx="2.5" ry="2.5" style="stroke:#181818;stroke-width:0.5;" width="125" x="1376.5" y="84"/><ellipse cx="1391.5" cy="100" fill="#EB937F" rx="11" ry="11" style="stroke:#181818;stroke-width:1.0;"/><path d="M1395.6094,106 L1387.8906,106 L1387.8906,93.6094 L1395.6094,93.6094 L1395.6094,95.7656 L1390.3438,95.7656 L1390.3438,98.4375 L1395.1094,98.4375 L1395.1094,100.5938 L1390.3438,100.5938 L1390.3438,103.8438 L1395.6094,103.8438 L1395.6094,106 Z " fill="#000000"/><text fill="#000000" font-family="sans-serif" font-size="14" lengthAdjust="spacing" textLength="93" x="1405.5" y="104.8467">EGamePhase</text><line style="stroke:#181818;stroke-width:0.5;" x1="1377.5" x2="1500.5" y1="116" y2="116"/><line style="stroke:#181818;stroke-width:0.5;" x1="1377.5" x2="1500.5" y1="124" y2="124"/></g><!--MD5=[d37702e5e4920f0674e4bcac4922e19b]
class EModifier--><g id="elem_EModifier"><rect codeLine="27" fill="#F1F1F1" height="48" id="EModifier" rx="2.5" ry="2.5" style="stroke:#181818;stroke-width:0.5;" width="95" x="1536.5" y="84"/><ellipse cx="1551.5" cy="100" fill="#EB937F" rx="11" ry="11" style="stroke:#181818;stroke-width:1.0;"/><path d="M1555.6094,106 L1547.8906,106 L1547.8906,93.6094 L1555.6094,93.6094 L1555.6094,95.7656 L1550.3438,95.7656 L1550.3438,98.4375 L1555.1094,98.4375 L1555.1094,100.5938 L1550.3438,100.5938 L1550.3438,103.8438 L1555.6094,103.8438 L1555.6094,106 Z " fill="#000000"/><text fill="#000000" font-family="sans-serif" font-size="14" lengthAdjust="spacing" textLength="63" x="1565.5" y="104.8467">EModifier</text><line style="stroke:#181818;stroke-width:0.5;" x1="1537.5" x2="1630.5" y1="116" y2="116"/><line style="stroke:#181818;stroke-width:0.5;" x1="1537.5" x2="1630.5" y1="124" y2="124"/></g><!--MD5=[c63dd311f3d9abe47d951e853d0b8ad8]
class EPopUp--><g id="elem_EPopUp"><rect codeLine="28" fill="#F1F1F1" height="48" id="EPopUp" rx="2.5" ry="2.5" style="stroke:#181818;stroke-width:0.5;" width="87" x="940.5" y="194.5"/><ellipse cx="955.5" cy="210.5" fill="#EB937F" rx="11" ry="11" style="stroke:#181818;stroke-width:1.0;"/><path d="M959.6094,216.5 L951.8906,216.5 L951.8906,204.1094 L959.6094,204.1094 L959.6094,206.2656 L954.3438,206.2656 L954.3438,208.9375 L959.1094,208.9375 L959.1094,211.0938 L954.3438,211.0938 L954.3438,214.3438 L959.6094,214.3438 L959.6094,216.5 Z " fill="#000000"/><text fill="#000000" font-family="sans-serif" font-size="14" lengthAdjust="spacing" textLength="55" x="969.5" y="215.3467">EPopUp</text><line style="stroke:#181818;stroke-width:0.5;" x1="941.5" x2="1026.5" y1="226.5" y2="226.5"/><line style="stroke:#181818;stroke-width:0.5;" x1="941.5" x2="1026.5" y1="234.5" y2="234.5"/></g><!--MD5=[9621e94ed69783ae0a7e2063aa01aec1]
class ERotation--><g id="elem_ERotation"><rect codeLine="29" fill="#F1F1F1" height="48" id="ERotation" rx="2.5" ry="2.5" style="stroke:#181818;stroke-width:0.5;" width="99" x="1062.5" y="194.5"/><ellipse cx="1077.5" cy="210.5" fill="#EB937F" rx="11" ry="11" style="stroke:#181818;stroke-width:1.0;"/><path d="M1081.6094,216.5 L1073.8906,216.5 L1073.8906,204.1094 L1081.6094,204.1094 L1081.6094,206.2656 L1076.3438,206.2656 L1076.3438,208.9375 L1081.1094,208.9375 L1081.1094,211.0938 L1076.3438,211.0938 L1076.3438,214.3438 L1081.6094,214.3438 L1081.6094,216.5 Z " fill="#000000"/><text fill="#000000" font-family="sans-serif" font-size="14" lengthAdjust="spacing" textLength="67" x="1091.5" y="215.3467">ERotation</text><line style="stroke:#181818;stroke-width:0.5;" x1="1063.5" x2="1160.5" y1="226.5" y2="226.5"/><line style="stroke:#181818;stroke-width:0.5;" x1="1063.5" x2="1160.5" y1="234.5" y2="234.5"/></g><!--MD5=[582827aa0bf6d50a07d5d5fc51e2258b]
class EShopAction--><g id="elem_EShopAction"><rect codeLine="30" fill="#F1F1F1" height="48" id="EShopAction" rx="2.5" ry="2.5" style="stroke:#181818;stroke-width:0.5;" width="120" x="1197" y="194.5"/><ellipse cx="1212" cy="210.5" fill="#EB937F" rx="11" ry="11" style="stroke:#181818;stroke-width:1.0;"/><path d="M1216.1094,216.5 L1208.3906,216.5 L1208.3906,204.1094 L1216.1094,204.1094 L1216.1094,206.2656 L1210.8438,206.2656 L1210.8438,208.9375 L1215.6094,208.9375 L1215.6094,211.0938 L1210.8438,211.0938 L1210.8438,214.3438 L1216.1094,214.3438 L1216.1094,216.5 Z " fill="#000000"/><text fill="#000000" font-family="sans-serif" font-size="14" lengthAdjust="spacing" textLength="88" x="1226" y="215.3467">EShopAction</text><line style="stroke:#181818;stroke-width:0.5;" x1="1198" x2="1316" y1="226.5" y2="226.5"/><line style="stroke:#181818;stroke-width:0.5;" x1="1198" x2="1316" y1="234.5" y2="234.5"/></g><!--MD5=[263e351139d5740c432ef1f0813795b3]
class EShopState--><g id="elem_EShopState"><rect codeLine="31" fill="#F1F1F1" height="48" id="EShopState" rx="2.5" ry="2.5" style="stroke:#181818;stroke-width:0.5;" width="113" x="1352.5" y="194.5"/><ellipse cx="1367.5" cy="210.5" fill="#EB937F" rx="11" ry="11" style="stroke:#181818;stroke-width:1.0;"/><path d="M1371.6094,216.5 L1363.8906,216.5 L1363.8906,204.1094 L1371.6094,204.1094 L1371.6094,206.2656 L1366.3438,206.2656 L1366.3438,208.9375 L1371.1094,208.9375 L1371.1094,211.0938 L1366.3438,211.0938 L1366.3438,214.3438 L1371.6094,214.3438 L1371.6094,216.5 Z " fill="#000000"/><text fill="#000000" font-family="sans-serif" font-size="14" lengthAdjust="spacing" textLength="81" x="1381.5" y="215.3467">EShopState</text><line style="stroke:#181818;stroke-width:0.5;" x1="1353.5" x2="1464.5" y1="226.5" y2="226.5"/><line style="stroke:#181818;stroke-width:0.5;" x1="1353.5" x2="1464.5" y1="234.5" y2="234.5"/></g><!--MD5=[b086d837dc71569a4e640309e996f55f]
class EUpgradeCard--><g id="elem_EUpgradeCard"><rect codeLine="32" fill="#F1F1F1" height="48" id="EUpgradeCard" rx="2.5" ry="2.5" style="stroke:#181818;stroke-width:0.5;" width="132" x="1501" y="194.5"/><ellipse cx="1516" cy="210.5" fill="#EB937F" rx="11" ry="11" style="stroke:#181818;stroke-width:1.0;"/><path d="M1520.1094,216.5 L1512.3906,216.5 L1512.3906,204.1094 L1520.1094,204.1094 L1520.1094,206.2656 L1514.8438,206.2656 L1514.8438,208.9375 L1519.6094,208.9375 L1519.6094,211.0938 L1514.8438,211.0938 L1514.8438,214.3438 L1520.1094,214.3438 L1520.1094,216.5 Z " fill="#000000"/><text fill="#000000" font-family="sans-serif" font-size="14" lengthAdjust="spacing" textLength="100" x="1530" y="215.3467">EUpgradeCard</text><line style="stroke:#181818;stroke-width:0.5;" x1="1502" x2="1632" y1="226.5" y2="226.5"/><line style="stroke:#181818;stroke-width:0.5;" x1="1502" x2="1632" y1="234.5" y2="234.5"/></g><!--MD5=[114b4ff0bf64efbc5cdf222b875834e5]
class OutErr--><g id="elem_OutErr"><rect codeLine="33" fill="#F1F1F1" height="48" id="OutErr" rx="2.5" ry="2.5" style="stroke:#181818;stroke-width:0.5;" width="76" x="928" y="317.5"/><ellipse cx="943" cy="333.5" fill="#EB937F" rx="11" ry="11" style="stroke:#181818;stroke-width:1.0;"/><path d="M947.1094,339.5 L939.3906,339.5 L939.3906,327.1094 L947.1094,327.1094 L947.1094,329.2656 L941.8438,329.2656 L941.8438,331.9375 L946.6094,331.9375 L946.6094,334.0938 L941.8438,334.0938 L941.8438,337.3438 L947.1094,337.3438 L947.1094,339.5 Z " fill="#000000"/><text fill="#000000" font-family="sans-serif" font-size="14" lengthAdjust="spacing" textLength="44" x="957" y="338.3467">OutErr</text><line style="stroke:#181818;stroke-width:0.5;" x1="929" x2="1003" y1="349.5" y2="349.5"/><line style="stroke:#181818;stroke-width:0.5;" x1="929" x2="1003" y1="357.5" y2="357.5"/></g><!--MD5=[6cf29334faed8a2b08b32944ae91a10d]
class RCheckpointMask--><g id="elem_RCheckpointMask"><rect codeLine="34" fill="#F1F1F1" height="48" id="RCheckpointMask" rx="2.5" ry="2.5" style="stroke:#181818;stroke-width:0.5;" width="157" x="1039.5" y="317.5"/><ellipse cx="1054.5" cy="333.5" fill="#ADD1B2" rx="11" ry="11" style="stroke:#181818;stroke-width:1.0;"/><path d="M1057.4688,339.1406 Q1056.8906,339.4375 1056.25,339.5781 Q1055.6094,339.7344 1054.9063,339.7344 Q1052.4063,339.7344 1051.0781,338.0938 Q1049.7656,336.4375 1049.7656,333.3125 Q1049.7656,330.1875 1051.0781,328.5313 Q1052.4063,326.875 1054.9063,326.875 Q1055.6094,326.875 1056.25,327.0313 Q1056.9063,327.1875 1057.4688,327.4844 L1057.4688,330.2031 Q1056.8438,329.625 1056.25,329.3594 Q1055.6563,329.0781 1055.0313,329.0781 Q1053.6875,329.0781 1053,330.1563 Q1052.3125,331.2188 1052.3125,333.3125 Q1052.3125,335.4063 1053,336.4844 Q1053.6875,337.5469 1055.0313,337.5469 Q1055.6563,337.5469 1056.25,337.2813 Q1056.8438,337 1057.4688,336.4219 L1057.4688,339.1406 Z " fill="#000000"/><text fill="#000000" font-family="sans-serif" font-size="14" lengthAdjust="spacing" textLength="125" x="1068.5" y="338.3467">RCheckpointMask</text><line style="stroke:#181818;stroke-width:0.5;" x1="1040.5" x2="1195.5" y1="349.5" y2="349.5"/><line style="stroke:#181818;stroke-width:0.5;" x1="1040.5" x2="1195.5" y1="357.5" y2="357.5"/></g><!--MD5=[370a0fec77ab9ad0e20a0901eeaf11b5]
class RCoordinate--><g id="elem_RCoordinate"><rect codeLine="35" fill="#F1F1F1" height="48" id="RCoordinate" rx="2.5" ry="2.5" style="stroke:#181818;stroke-width:0.5;" width="118" x="1232" y="317.5"/><ellipse cx="1247" cy="333.5" fill="#ADD1B2" rx="11" ry="11" style="stroke:#181818;stroke-width:1.0;"/><path d="M1249.9688,339.1406 Q1249.3906,339.4375 1248.75,339.5781 Q1248.1094,339.7344 1247.4063,339.7344 Q1244.9063,339.7344 1243.5781,338.0938 Q1242.2656,336.4375 1242.2656,333.3125 Q1242.2656,330.1875 1243.5781,328.5313 Q1244.9063,326.875 1247.4063,326.875 Q1248.1094,326.875 1248.75,327.0313 Q1249.4063,327.1875 1249.9688,327.4844 L1249.9688,330.2031 Q1249.3438,329.625 1248.75,329.3594 Q1248.1563,329.0781 1247.5313,329.0781 Q1246.1875,329.0781 1245.5,330.1563 Q1244.8125,331.2188 1244.8125,333.3125 Q1244.8125,335.4063 1245.5,336.4844 Q1246.1875,337.5469 1247.5313,337.5469 Q1248.1563,337.5469 1248.75,337.2813 Q1249.3438,337 1249.9688,336.4219 L1249.9688,339.1406 Z " fill="#000000"/><text fill="#000000" font-family="sans-serif" font-size="14" lengthAdjust="spacing" textLength="86" x="1261" y="338.3467">RCoordinate</text><line style="stroke:#181818;stroke-width:0.5;" x1="1233" x2="1349" y1="349.5" y2="349.5"/><line style="stroke:#181818;stroke-width:0.5;" x1="1233" x2="1349" y1="357.5" y2="357.5"/></g><!--MD5=[a57fc2154da16c8cd8b95515c90b8ec2]
class RGearMask--><g id="elem_RGearMask"><rect codeLine="36" fill="#F1F1F1" height="48" id="RGearMask" rx="2.5" ry="2.5" style="stroke:#181818;stroke-width:0.5;" width="111" x="1385.5" y="317.5"/><ellipse cx="1400.5" cy="333.5" fill="#ADD1B2" rx="11" ry="11" style="stroke:#181818;stroke-width:1.0;"/><path d="M1403.4688,339.1406 Q1402.8906,339.4375 1402.25,339.5781 Q1401.6094,339.7344 1400.9063,339.7344 Q1398.4063,339.7344 1397.0781,338.0938 Q1395.7656,336.4375 1395.7656,333.3125 Q1395.7656,330.1875 1397.0781,328.5313 Q1398.4063,326.875 1400.9063,326.875 Q1401.6094,326.875 1402.25,327.0313 Q1402.9063,327.1875 1403.4688,327.4844 L1403.4688,330.2031 Q1402.8438,329.625 1402.25,329.3594 Q1401.6563,329.0781 1401.0313,329.0781 Q1399.6875,329.0781 1399,330.1563 Q1398.3125,331.2188 1398.3125,333.3125 Q1398.3125,335.4063 1399,336.4844 Q1399.6875,337.5469 1401.0313,337.5469 Q1401.6563,337.5469 1402.25,337.2813 Q1402.8438,337 1403.4688,336.4219 L1403.4688,339.1406 Z " fill="#000000"/><text fill="#000000" font-family="sans-serif" font-size="14" lengthAdjust="spacing" textLength="79" x="1414.5" y="338.3467">RGearMask</text><line style="stroke:#181818;stroke-width:0.5;" x1="1386.5" x2="1495.5" y1="349.5" y2="349.5"/><line style="stroke:#181818;stroke-width:0.5;" x1="1386.5" x2="1495.5" y1="357.5" y2="357.5"/></g><!--MD5=[cf36df08487f9e310d55969a6e250b59]
class RImageMask--><g id="elem_RImageMask"><rect codeLine="37" fill="#F1F1F1" height="48" id="RImageMask" rx="2.5" ry="2.5" style="stroke:#181818;stroke-width:0.5;" width="120" x="1532" y="317.5"/><ellipse cx="1547" cy="333.5" fill="#ADD1B2" rx="11" ry="11" style="stroke:#181818;stroke-width:1.0;"/><path d="M1549.9688,339.1406 Q1549.3906,339.4375 1548.75,339.5781 Q1548.1094,339.7344 1547.4063,339.7344 Q1544.9063,339.7344 1543.5781,338.0938 Q1542.2656,336.4375 1542.2656,333.3125 Q1542.2656,330.1875 1543.5781,328.5313 Q1544.9063,326.875 1547.4063,326.875 Q1548.1094,326.875 1548.75,327.0313 Q1549.4063,327.1875 1549.9688,327.4844 L1549.9688,330.2031 Q1549.3438,329.625 1548.75,329.3594 Q1548.1563,329.0781 1547.5313,329.0781 Q1546.1875,329.0781 1545.5,330.1563 Q1544.8125,331.2188 1544.8125,333.3125 Q1544.8125,335.4063 1545.5,336.4844 Q1546.1875,337.5469 1547.5313,337.5469 Q1548.1563,337.5469 1548.75,337.2813 Q1549.3438,337 1549.9688,336.4219 L1549.9688,339.1406 Z " fill="#000000"/><text fill="#000000" font-family="sans-serif" font-size="14" lengthAdjust="spacing" textLength="88" x="1561" y="338.3467">RImageMask</text><line style="stroke:#181818;stroke-width:0.5;" x1="1533" x2="1651" y1="349.5" y2="349.5"/><line style="stroke:#181818;stroke-width:0.5;" x1="1533" x2="1651" y1="357.5" y2="357.5"/></g><!--MD5=[d14c4122d2d496e05f710f5ebba24ea9]
class RLaserMask--><g id="elem_RLaserMask"><rect codeLine="38" fill="#F1F1F1" height="48" id="RLaserMask" rx="2.5" ry="2.5" style="stroke:#181818;stroke-width:0.5;" width="115" x="918.5" y="425.5"/><ellipse cx="933.5" cy="441.5" fill="#ADD1B2" rx="11" ry="11" style="stroke:#181818;stroke-width:1.0;"/><path d="M936.4688,447.1406 Q935.8906,447.4375 935.25,447.5781 Q934.6094,447.7344 933.9063,447.7344 Q931.4063,447.7344 930.0781,446.0938 Q928.7656,444.4375 928.7656,441.3125 Q928.7656,438.1875 930.0781,436.5313 Q931.4063,434.875 933.9063,434.875 Q934.6094,434.875 935.25,435.0313 Q935.9063,435.1875 936.4688,435.4844 L936.4688,438.2031 Q935.8438,437.625 935.25,437.3594 Q934.6563,437.0781 934.0313,437.0781 Q932.6875,437.0781 932,438.1563 Q931.3125,439.2188 931.3125,441.3125 Q931.3125,443.4063 932,444.4844 Q932.6875,445.5469 934.0313,445.5469 Q934.6563,445.5469 935.25,445.2813 Q935.8438,445 936.4688,444.4219 L936.4688,447.1406 Z " fill="#000000"/><text fill="#000000" font-family="sans-serif" font-size="14" lengthAdjust="spacing" textLength="83" x="947.5" y="446.3467">RLaserMask</text><line style="stroke:#181818;stroke-width:0.5;" x1="919.5" x2="1032.5" y1="457.5" y2="457.5"/><line style="stroke:#181818;stroke-width:0.5;" x1="919.5" x2="1032.5" y1="465.5" y2="465.5"/></g><!--MD5=[1b2635bdceb5f1cb8f667d71a1ab320b]
class RPopUpMask--><g id="elem_RPopUpMask"><rect codeLine="39" fill="#F1F1F1" height="48" id="RPopUpMask" rx="2.5" ry="2.5" style="stroke:#181818;stroke-width:0.5;" width="124" x="1069" y="425.5"/><ellipse cx="1084" cy="441.5" fill="#ADD1B2" rx="11" ry="11" style="stroke:#181818;stroke-width:1.0;"/><path d="M1086.9688,447.1406 Q1086.3906,447.4375 1085.75,447.5781 Q1085.1094,447.7344 1084.4063,447.7344 Q1081.9063,447.7344 1080.5781,446.0938 Q1079.2656,444.4375 1079.2656,441.3125 Q1079.2656,438.1875 1080.5781,436.5313 Q1081.9063,434.875 1084.4063,434.875 Q1085.1094,434.875 1085.75,435.0313 Q1086.4063,435.1875 1086.9688,435.4844 L1086.9688,438.2031 Q1086.3438,437.625 1085.75,437.3594 Q1085.1563,437.0781 1084.5313,437.0781 Q1083.1875,437.0781 1082.5,438.1563 Q1081.8125,439.2188 1081.8125,441.3125 Q1081.8125,443.4063 1082.5,444.4844 Q1083.1875,445.5469 1084.5313,445.5469 Q1085.1563,445.5469 1085.75,445.2813 Q1086.3438,445 1086.9688,444.4219 L1086.9688,447.1406 Z " fill="#000000"/><text fill="#000000" font-family="sans-serif" font-size="14" lengthAdjust="spacing" textLength="92" x="1098" y="446.3467">RPopUpMask</text><line style="stroke:#181818;stroke-width:0.5;" x1="1070" x2="1192" y1="457.5" y2="457.5"/><line style="stroke:#181818;stroke-width:0.5;" x1="1070" x2="1192" y1="465.5" y2="465.5"/></g><!--MD5=[d40abcc40c9268ddb7ef4c2103c1c10c]
class RRegisterCard--><g id="elem_RRegisterCard"><rect codeLine="40" fill="#F1F1F1" height="48" id="RRegisterCard" rx="2.5" ry="2.5" style="stroke:#181818;stroke-width:0.5;" width="132" x="1228" y="425.5"/><ellipse cx="1243" cy="441.5" fill="#ADD1B2" rx="11" ry="11" style="stroke:#181818;stroke-width:1.0;"/><path d="M1245.9688,447.1406 Q1245.3906,447.4375 1244.75,447.5781 Q1244.1094,447.7344 1243.4063,447.7344 Q1240.9063,447.7344 1239.5781,446.0938 Q1238.2656,444.4375 1238.2656,441.3125 Q1238.2656,438.1875 1239.5781,436.5313 Q1240.9063,434.875 1243.4063,434.875 Q1244.1094,434.875 1244.75,435.0313 Q1245.4063,435.1875 1245.9688,435.4844 L1245.9688,438.2031 Q1245.3438,437.625 1244.75,437.3594 Q1244.1563,437.0781 1243.5313,437.0781 Q1242.1875,437.0781 1241.5,438.1563 Q1240.8125,439.2188 1240.8125,441.3125 Q1240.8125,443.4063 1241.5,444.4844 Q1242.1875,445.5469 1243.5313,445.5469 Q1244.1563,445.5469 1244.75,445.2813 Q1245.3438,445 1245.9688,444.4219 L1245.9688,447.1406 Z " fill="#000000"/><text fill="#000000" font-family="sans-serif" font-size="14" lengthAdjust="spacing" textLength="100" x="1257" y="446.3467">RRegisterCard</text><line style="stroke:#181818;stroke-width:0.5;" x1="1229" x2="1359" y1="457.5" y2="457.5"/><line style="stroke:#181818;stroke-width:0.5;" x1="1229" x2="1359" y1="465.5" y2="465.5"/></g><!--MD5=[e957b4513b0b0ed0301de42086cf1c62]
class RRotation--><g id="elem_RRotation"><rect codeLine="41" fill="#F1F1F1" height="48" id="RRotation" rx="2.5" ry="2.5" style="stroke:#181818;stroke-width:0.5;" width="100" x="1395" y="425.5"/><ellipse cx="1410" cy="441.5" fill="#ADD1B2" rx="11" ry="11" style="stroke:#181818;stroke-width:1.0;"/><path d="M1412.9688,447.1406 Q1412.3906,447.4375 1411.75,447.5781 Q1411.1094,447.7344 1410.4063,447.7344 Q1407.9063,447.7344 1406.5781,446.0938 Q1405.2656,444.4375 1405.2656,441.3125 Q1405.2656,438.1875 1406.5781,436.5313 Q1407.9063,434.875 1410.4063,434.875 Q1411.1094,434.875 1411.75,435.0313 Q1412.4063,435.1875 1412.9688,435.4844 L1412.9688,438.2031 Q1412.3438,437.625 1411.75,437.3594 Q1411.1563,437.0781 1410.5313,437.0781 Q1409.1875,437.0781 1408.5,438.1563 Q1407.8125,439.2188 1407.8125,441.3125 Q1407.8125,443.4063 1408.5,444.4844 Q1409.1875,445.5469 1410.5313,445.5469 Q1411.1563,445.5469 1411.75,445.2813 Q1412.3438,445 1412.9688,444.4219 L1412.9688,447.1406 Z " fill="#000000"/><text fill="#000000" font-family="sans-serif" font-size="14" lengthAdjust="spacing" textLength="68" x="1424" y="446.3467">RRotation</text><line style="stroke:#181818;stroke-width:0.5;" x1="1396" x2="1494" y1="457.5" y2="457.5"/><line style="stroke:#181818;stroke-width:0.5;" x1="1396" x2="1494" y1="465.5" y2="465.5"/></g><!--MD5=[7e017231674a382d091377af3942aade]
class RShopAction--><g id="elem_RShopAction"><rect codeLine="42" fill="#F1F1F1" height="48" id="RShopAction" rx="2.5" ry="2.5" style="stroke:#181818;stroke-width:0.5;" width="121" x="1530.5" y="425.5"/><ellipse cx="1545.5" cy="441.5" fill="#ADD1B2" rx="11" ry="11" style="stroke:#181818;stroke-width:1.0;"/><path d="M1548.4688,447.1406 Q1547.8906,447.4375 1547.25,447.5781 Q1546.6094,447.7344 1545.9063,447.7344 Q1543.4063,447.7344 1542.0781,446.0938 Q1540.7656,444.4375 1540.7656,441.3125 Q1540.7656,438.1875 1542.0781,436.5313 Q1543.4063,434.875 1545.9063,434.875 Q1546.6094,434.875 1547.25,435.0313 Q1547.9063,435.1875 1548.4688,435.4844 L1548.4688,438.2031 Q1547.8438,437.625 1547.25,437.3594 Q1546.6563,437.0781 1546.0313,437.0781 Q1544.6875,437.0781 1544,438.1563 Q1543.3125,439.2188 1543.3125,441.3125 Q1543.3125,443.4063 1544,444.4844 Q1544.6875,445.5469 1546.0313,445.5469 Q1546.6563,445.5469 1547.25,445.2813 Q1547.8438,445 1548.4688,444.4219 L1548.4688,447.1406 Z " fill="#000000"/><text fill="#000000" font-family="sans-serif" font-size="14" lengthAdjust="spacing" textLength="89" x="1559.5" y="446.3467">RShopAction</text><line style="stroke:#181818;stroke-width:0.5;" x1="1531.5" x2="1650.5" y1="457.5" y2="457.5"/><line style="stroke:#181818;stroke-width:0.5;" x1="1531.5" x2="1650.5" y1="465.5" y2="465.5"/></g><!--MD5=[acc60a0d33ba64112854d9daefd976ea]
class EndSceneJFXController--><g id="elem_EndSceneJFXController"><rect codeLine="46" fill="#F1F1F1" height="48" id="EndSceneJFXController" rx="2.5" ry="2.5" style="stroke:#181818;stroke-width:0.5;" width="190" x="1891" y="317.5"/><ellipse cx="1906" cy="333.5" fill="#ADD1B2" rx="11" ry="11" style="stroke:#181818;stroke-width:1.0;"/><path d="M1908.9688,339.1406 Q1908.3906,339.4375 1907.75,339.5781 Q1907.1094,339.7344 1906.4063,339.7344 Q1903.9063,339.7344 1902.5781,338.0938 Q1901.2656,336.4375 1901.2656,333.3125 Q1901.2656,330.1875 1902.5781,328.5313 Q1903.9063,326.875 1906.4063,326.875 Q1907.1094,326.875 1907.75,327.0313 Q1908.4063,327.1875 1908.9688,327.4844 L1908.9688,330.2031 Q1908.3438,329.625 1907.75,329.3594 Q1907.1563,329.0781 1906.5313,329.0781 Q1905.1875,329.0781 1904.5,330.1563 Q1903.8125,331.2188 1903.8125,333.3125 Q1903.8125,335.4063 1904.5,336.4844 Q1905.1875,337.5469 1906.5313,337.5469 Q1907.1563,337.5469 1907.75,337.2813 Q1908.3438,337 1908.9688,336.4219 L1908.9688,339.1406 Z " fill="#000000"/><text fill="#000000" font-family="sans-serif" font-size="14" lengthAdjust="spacing" textLength="158" x="1920" y="338.3467">EndSceneJFXController</text><line style="stroke:#181818;stroke-width:0.5;" x1="1892" x2="2080" y1="349.5" y2="349.5"/><line style="stroke:#181818;stroke-width:0.5;" x1="1892" x2="2080" y1="357.5" y2="357.5"/></g><!--MD5=[734dd824392157f70555513834acb97a]
class GameJFXController--><g id="elem_GameJFXController"><rect codeLine="47" fill="#F1F1F1" height="48" id="GameJFXController" rx="2.5" ry="2.5" style="stroke:#181818;stroke-width:0.5;" width="160" x="2116" y="317.5"/><ellipse cx="2131" cy="333.5" fill="#ADD1B2" rx="11" ry="11" style="stroke:#181818;stroke-width:1.0;"/><path d="M2133.9688,339.1406 Q2133.3906,339.4375 2132.75,339.5781 Q2132.1094,339.7344 2131.4063,339.7344 Q2128.9063,339.7344 2127.5781,338.0938 Q2126.2656,336.4375 2126.2656,333.3125 Q2126.2656,330.1875 2127.5781,328.5313 Q2128.9063,326.875 2131.4063,326.875 Q2132.1094,326.875 2132.75,327.0313 Q2133.4063,327.1875 2133.9688,327.4844 L2133.9688,330.2031 Q2133.3438,329.625 2132.75,329.3594 Q2132.1563,329.0781 2131.5313,329.0781 Q2130.1875,329.0781 2129.5,330.1563 Q2128.8125,331.2188 2128.8125,333.3125 Q2128.8125,335.4063 2129.5,336.4844 Q2130.1875,337.5469 2131.5313,337.5469 Q2132.1563,337.5469 2132.75,337.2813 Q2133.3438,337 2133.9688,336.4219 L2133.9688,339.1406 Z " fill="#000000"/><text fill="#000000" font-family="sans-serif" font-size="14" lengthAdjust="spacing" textLength="128" x="2145" y="338.3467">GameJFXController</text><line style="stroke:#181818;stroke-width:0.5;" x1="2117" x2="2275" y1="349.5" y2="349.5"/><line style="stroke:#181818;stroke-width:0.5;" x1="2117" x2="2275" y1="357.5" y2="357.5"/></g><!--MD5=[a2b06c1777d9cefb2006d6d60ecaf25c]
class LobbyJFXController_v2--><g id="elem_LobbyJFXController_v2"><rect codeLine="48" fill="#F1F1F1" height="48" id="LobbyJFXController_v2" rx="2.5" ry="2.5" style="stroke:#181818;stroke-width:0.5;" width="183" x="1891.5" y="425.5"/><ellipse cx="1906.5" cy="441.5" fill="#ADD1B2" rx="11" ry="11" style="stroke:#181818;stroke-width:1.0;"/><path d="M1909.4688,447.1406 Q1908.8906,447.4375 1908.25,447.5781 Q1907.6094,447.7344 1906.9063,447.7344 Q1904.4063,447.7344 1903.0781,446.0938 Q1901.7656,444.4375 1901.7656,441.3125 Q1901.7656,438.1875 1903.0781,436.5313 Q1904.4063,434.875 1906.9063,434.875 Q1907.6094,434.875 1908.25,435.0313 Q1908.9063,435.1875 1909.4688,435.4844 L1909.4688,438.2031 Q1908.8438,437.625 1908.25,437.3594 Q1907.6563,437.0781 1907.0313,437.0781 Q1905.6875,437.0781 1905,438.1563 Q1904.3125,439.2188 1904.3125,441.3125 Q1904.3125,443.4063 1905,444.4844 Q1905.6875,445.5469 1907.0313,445.5469 Q1907.6563,445.5469 1908.25,445.2813 Q1908.8438,445 1909.4688,444.4219 L1909.4688,447.1406 Z " fill="#000000"/><text fill="#000000" font-family="sans-serif" font-size="14" lengthAdjust="spacing" textLength="151" x="1920.5" y="446.3467">LobbyJFXController_v2</text><line style="stroke:#181818;stroke-width:0.5;" x1="1892.5" x2="2073.5" y1="457.5" y2="457.5"/><line style="stroke:#181818;stroke-width:0.5;" x1="1892.5" x2="2073.5" y1="465.5" y2="465.5"/></g><!--MD5=[f23841e26c5202abbb57d3963373a7ff]
class MainMenuJFXController--><g id="elem_MainMenuJFXController"><rect codeLine="49" fill="#F1F1F1" height="48" id="MainMenuJFXController" rx="2.5" ry="2.5" style="stroke:#181818;stroke-width:0.5;" width="190" x="2110" y="425.5"/><ellipse cx="2125" cy="441.5" fill="#ADD1B2" rx="11" ry="11" style="stroke:#181818;stroke-width:1.0;"/><path d="M2127.9688,447.1406 Q2127.3906,447.4375 2126.75,447.5781 Q2126.1094,447.7344 2125.4063,447.7344 Q2122.9063,447.7344 2121.5781,446.0938 Q2120.2656,444.4375 2120.2656,441.3125 Q2120.2656,438.1875 2121.5781,436.5313 Q2122.9063,434.875 2125.4063,434.875 Q2126.1094,434.875 2126.75,435.0313 Q2127.4063,435.1875 2127.9688,435.4844 L2127.9688,438.2031 Q2127.3438,437.625 2126.75,437.3594 Q2126.1563,437.0781 2125.5313,437.0781 Q2124.1875,437.0781 2123.5,438.1563 Q2122.8125,439.2188 2122.8125,441.3125 Q2122.8125,443.4063 2123.5,444.4844 Q2124.1875,445.5469 2125.5313,445.5469 Q2126.1563,445.5469 2126.75,445.2813 Q2127.3438,445 2127.9688,444.4219 L2127.9688,447.1406 Z " fill="#000000"/><text fill="#000000" font-family="sans-serif" font-size="14" lengthAdjust="spacing" textLength="158" x="2139" y="446.3467">MainMenuJFXController</text><line style="stroke:#181818;stroke-width:0.5;" x1="2111" x2="2299" y1="457.5" y2="457.5"/><line style="stroke:#181818;stroke-width:0.5;" x1="2111" x2="2299" y1="465.5" y2="465.5"/></g><!--MD5=[3863cac317b7e20764370bcbaf4840a0]
class AgentMockViewLauncher--><g id="elem_AgentMockViewLauncher"><rect codeLine="53" fill="#F1F1F1" height="48" id="AgentMockViewLauncher" rx="2.5" ry="2.5" style="stroke:#181818;stroke-width:0.5;" width="206" x="46" y="425.5"/><ellipse cx="61" cy="441.5" fill="#ADD1B2" rx="11" ry="11" style="stroke:#181818;stroke-width:1.0;"/><path d="M63.9688,447.1406 Q63.3906,447.4375 62.75,447.5781 Q62.1094,447.7344 61.4063,447.7344 Q58.9063,447.7344 57.5781,446.0938 Q56.2656,444.4375 56.2656,441.3125 Q56.2656,438.1875 57.5781,436.5313 Q58.9063,434.875 61.4063,434.875 Q62.1094,434.875 62.75,435.0313 Q63.4063,435.1875 63.9688,435.4844 L63.9688,438.2031 Q63.3438,437.625 62.75,437.3594 Q62.1563,437.0781 61.5313,437.0781 Q60.1875,437.0781 59.5,438.1563 Q58.8125,439.2188 58.8125,441.3125 Q58.8125,443.4063 59.5,444.4844 Q60.1875,445.5469 61.5313,445.5469 Q62.1563,445.5469 62.75,445.2813 Q63.3438,445 63.9688,444.4219 L63.9688,447.1406 Z " fill="#000000"/><text fill="#000000" font-family="sans-serif" font-size="14" lengthAdjust="spacing" textLength="174" x="75" y="446.3467">AgentMockViewLauncher</text><line style="stroke:#181818;stroke-width:0.5;" x1="47" x2="251" y1="457.5" y2="457.5"/><line style="stroke:#181818;stroke-width:0.5;" x1="47" x2="251" y1="465.5" y2="465.5"/></g><!--MD5=[2669809b524e29ea61795f8fed8e1c3f]
class IMockView--><g id="elem_IMockView"><rect codeLine="54" fill="#F1F1F1" height="48" id="IMockView" rx="2.5" ry="2.5" style="stroke:#181818;stroke-width:0.5;" width="104" x="186" y="317.5"/><ellipse cx="201" cy="333.5" fill="#B4A7E5" rx="11" ry="11" style="stroke:#181818;stroke-width:1.0;"/><path d="M196.9219,329.2656 L196.9219,327.1094 L204.3125,327.1094 L204.3125,329.2656 L201.8438,329.2656 L201.8438,337.3438 L204.3125,337.3438 L204.3125,339.5 L196.9219,339.5 L196.9219,337.3438 L199.3906,337.3438 L199.3906,329.2656 L196.9219,329.2656 Z " fill="#000000"/><text fill="#000000" font-family="sans-serif" font-size="14" font-style="italic" lengthAdjust="spacing" textLength="72" x="215" y="338.3467">IMockView</text><line style="stroke:#181818;stroke-width:0.5;" x1="187" x2="289" y1="349.5" y2="349.5"/><line style="stroke:#181818;stroke-width:0.5;" x1="187" x2="289" y1="357.5" y2="357.5"/></g><!--MD5=[c2d0ca1462e803025945b02ad198e69a]
class MockViewLauncher--><g id="elem_MockViewLauncher"><rect codeLine="55" fill="#F1F1F1" height="48" id="MockViewLauncher" rx="2.5" ry="2.5" style="stroke:#181818;stroke-width:0.5;" width="165" x="287.5" y="425.5"/><ellipse cx="302.5" cy="441.5" fill="#ADD1B2" rx="11" ry="11" style="stroke:#181818;stroke-width:1.0;"/><path d="M305.4688,447.1406 Q304.8906,447.4375 304.25,447.5781 Q303.6094,447.7344 302.9063,447.7344 Q300.4063,447.7344 299.0781,446.0938 Q297.7656,444.4375 297.7656,441.3125 Q297.7656,438.1875 299.0781,436.5313 Q300.4063,434.875 302.9063,434.875 Q303.6094,434.875 304.25,435.0313 Q304.9063,435.1875 305.4688,435.4844 L305.4688,438.2031 Q304.8438,437.625 304.25,437.3594 Q303.6563,437.0781 303.0313,437.0781 Q301.6875,437.0781 301,438.1563 Q300.3125,439.2188 300.3125,441.3125 Q300.3125,443.4063 301,444.4844 Q301.6875,445.5469 303.0313,445.5469 Q303.6563,445.5469 304.25,445.2813 Q304.8438,445 305.4688,444.4219 L305.4688,447.1406 Z " fill="#000000"/><text fill="#000000" font-family="sans-serif" font-size="14" lengthAdjust="spacing" textLength="133" x="316.5" y="446.3467">MockViewLauncher</text><line style="stroke:#181818;stroke-width:0.5;" x1="288.5" x2="451.5" y1="457.5" y2="457.5"/><line style="stroke:#181818;stroke-width:0.5;" x1="288.5" x2="451.5" y1="465.5" y2="465.5"/></g><!--MD5=[746e2c0493a21d34c8c943c192889149]
class RGameScene--><g id="elem_RGameScene"><rect codeLine="56" fill="#F1F1F1" height="48" id="RGameScene" rx="2.5" ry="2.5" style="stroke:#181818;stroke-width:0.5;" width="127" x="414.5" y="317.5"/><ellipse cx="429.5" cy="333.5" fill="#ADD1B2" rx="11" ry="11" style="stroke:#181818;stroke-width:1.0;"/><path d="M432.4688,339.1406 Q431.8906,339.4375 431.25,339.5781 Q430.6094,339.7344 429.9063,339.7344 Q427.4063,339.7344 426.0781,338.0938 Q424.7656,336.4375 424.7656,333.3125 Q424.7656,330.1875 426.0781,328.5313 Q427.4063,326.875 429.9063,326.875 Q430.6094,326.875 431.25,327.0313 Q431.9063,327.1875 432.4688,327.4844 L432.4688,330.2031 Q431.8438,329.625 431.25,329.3594 Q430.6563,329.0781 430.0313,329.0781 Q428.6875,329.0781 428,330.1563 Q427.3125,331.2188 427.3125,333.3125 Q427.3125,335.4063 428,336.4844 Q428.6875,337.5469 430.0313,337.5469 Q430.6563,337.5469 431.25,337.2813 Q431.8438,337 432.4688,336.4219 L432.4688,339.1406 Z " fill="#000000"/><text fill="#000000" font-family="sans-serif" font-size="14" lengthAdjust="spacing" textLength="95" x="443.5" y="338.3467">RGameScene</text><line style="stroke:#181818;stroke-width:0.5;" x1="415.5" x2="540.5" y1="349.5" y2="349.5"/><line style="stroke:#181818;stroke-width:0.5;" x1="415.5" x2="540.5" y1="357.5" y2="357.5"/></g><!--MD5=[96c12fa0c027fcf7bb1211931ed73d36]
class RobotView--><g id="elem_RobotView"><rect codeLine="57" fill="#F1F1F1" height="48" id="RobotView" rx="2.5" ry="2.5" style="stroke:#181818;stroke-width:0.5;" width="106" x="577" y="317.5"/><ellipse cx="592" cy="333.5" fill="#ADD1B2" rx="11" ry="11" style="stroke:#181818;stroke-width:1.0;"/><path d="M594.9688,339.1406 Q594.3906,339.4375 593.75,339.5781 Q593.1094,339.7344 592.4063,339.7344 Q589.9063,339.7344 588.5781,338.0938 Q587.2656,336.4375 587.2656,333.3125 Q587.2656,330.1875 588.5781,328.5313 Q589.9063,326.875 592.4063,326.875 Q593.1094,326.875 593.75,327.0313 Q594.4063,327.1875 594.9688,327.4844 L594.9688,330.2031 Q594.3438,329.625 593.75,329.3594 Q593.1563,329.0781 592.5313,329.0781 Q591.1875,329.0781 590.5,330.1563 Q589.8125,331.2188 589.8125,333.3125 Q589.8125,335.4063 590.5,336.4844 Q591.1875,337.5469 592.5313,337.5469 Q593.1563,337.5469 593.75,337.2813 Q594.3438,337 594.9688,336.4219 L594.9688,339.1406 Z " fill="#000000"/><text fill="#000000" font-family="sans-serif" font-size="14" lengthAdjust="spacing" textLength="74" x="606" y="338.3467">RobotView</text><line style="stroke:#181818;stroke-width:0.5;" x1="578" x2="682" y1="349.5" y2="349.5"/><line style="stroke:#181818;stroke-width:0.5;" x1="578" x2="682" y1="357.5" y2="357.5"/></g><!--MD5=[971bf916d8eb42f2244ad56cd88975df]
class SceneController--><g id="elem_SceneController"><rect codeLine="58" fill="#F1F1F1" height="48" id="SceneController" rx="2.5" ry="2.5" style="stroke:#181818;stroke-width:0.5;" width="143" x="718.5" y="317.5"/><ellipse cx="733.5" cy="333.5" fill="#ADD1B2" rx="11" ry="11" style="stroke:#181818;stroke-width:1.0;"/><path d="M736.4688,339.1406 Q735.8906,339.4375 735.25,339.5781 Q734.6094,339.7344 733.9063,339.7344 Q731.4063,339.7344 730.0781,338.0938 Q728.7656,336.4375 728.7656,333.3125 Q728.7656,330.1875 730.0781,328.5313 Q731.4063,326.875 733.9063,326.875 Q734.6094,326.875 735.25,327.0313 Q735.9063,327.1875 736.4688,327.4844 L736.4688,330.2031 Q735.8438,329.625 735.25,329.3594 Q734.6563,329.0781 734.0313,329.0781 Q732.6875,329.0781 732,330.1563 Q731.3125,331.2188 731.3125,333.3125 Q731.3125,335.4063 732,336.4844 Q732.6875,337.5469 734.0313,337.5469 Q734.6563,337.5469 735.25,337.2813 Q735.8438,337 736.4688,336.4219 L736.4688,339.1406 Z " fill="#000000"/><text fill="#000000" font-family="sans-serif" font-size="14" lengthAdjust="spacing" textLength="111" x="747.5" y="338.3467">SceneController</text><line style="stroke:#181818;stroke-width:0.5;" x1="719.5" x2="860.5" y1="349.5" y2="349.5"/><line style="stroke:#181818;stroke-width:0.5;" x1="719.5" x2="860.5" y1="357.5" y2="357.5"/></g><!--MD5=[18e4d9ca2a6cdced7b66e5fef94ef6f6]
class Tile--><g id="elem_Tile"><rect codeLine="59" fill="#F1F1F1" height="48" id="Tile" rx="2.5" ry="2.5" style="stroke:#181818;stroke-width:0.5;" width="56" x="488" y="425.5"/><ellipse cx="503" cy="441.5" fill="#ADD1B2" rx="11" ry="11" style="stroke:#181818;stroke-width:1.0;"/><path d="M505.9688,447.1406 Q505.3906,447.4375 504.75,447.5781 Q504.1094,447.7344 503.4063,447.7344 Q500.9063,447.7344 499.5781,446.0938 Q498.2656,444.4375 498.2656,441.3125 Q498.2656,438.1875 499.5781,436.5313 Q500.9063,434.875 503.4063,434.875 Q504.1094,434.875 504.75,435.0313 Q505.4063,435.1875 505.9688,435.4844 L505.9688,438.2031 Q505.3438,437.625 504.75,437.3594 Q504.1563,437.0781 503.5313,437.0781 Q502.1875,437.0781 501.5,438.1563 Q500.8125,439.2188 500.8125,441.3125 Q500.8125,443.4063 501.5,444.4844 Q502.1875,445.5469 503.5313,445.5469 Q504.1563,445.5469 504.75,445.2813 Q505.3438,445 505.9688,444.4219 L505.9688,447.1406 Z " fill="#000000"/><text fill="#000000" font-family="sans-serif" font-size="14" lengthAdjust="spacing" textLength="24" x="517" y="446.3467">Tile</text><line style="stroke:#181818;stroke-width:0.5;" x1="489" x2="543" y1="457.5" y2="457.5"/><line style="stroke:#181818;stroke-width:0.5;" x1="489" x2="543" y1="465.5" y2="465.5"/></g><!--MD5=[aee4b2af16ea6db7e9c31fc2f208ca19]
class TileModifier--><g id="elem_TileModifier"><rect codeLine="60" fill="#F1F1F1" height="48" id="TileModifier" rx="2.5" ry="2.5" style="stroke:#181818;stroke-width:0.5;" width="110" x="579" y="425.5"/><ellipse cx="594" cy="441.5" fill="#ADD1B2" rx="11" ry="11" style="stroke:#181818;stroke-width:1.0;"/><path d="M596.9688,447.1406 Q596.3906,447.4375 595.75,447.5781 Q595.1094,447.7344 594.4063,447.7344 Q591.9063,447.7344 590.5781,446.0938 Q589.2656,444.4375 589.2656,441.3125 Q589.2656,438.1875 590.5781,436.5313 Q591.9063,434.875 594.4063,434.875 Q595.1094,434.875 595.75,435.0313 Q596.4063,435.1875 596.9688,435.4844 L596.9688,438.2031 Q596.3438,437.625 595.75,437.3594 Q595.1563,437.0781 594.5313,437.0781 Q593.1875,437.0781 592.5,438.1563 Q591.8125,439.2188 591.8125,441.3125 Q591.8125,443.4063 592.5,444.4844 Q593.1875,445.5469 594.5313,445.5469 Q595.1563,445.5469 595.75,445.2813 Q596.3438,445 596.9688,444.4219 L596.9688,447.1406 Z " fill="#000000"/><text fill="#000000" font-family="sans-serif" font-size="14" lengthAdjust="spacing" textLength="78" x="608" y="446.3467">TileModifier</text><line style="stroke:#181818;stroke-width:0.5;" x1="580" x2="688" y1="457.5" y2="457.5"/><line style="stroke:#181818;stroke-width:0.5;" x1="580" x2="688" y1="465.5" y2="465.5"/></g><!--MD5=[1119fd2fc7f265a20a7fb1de99f4bd0c]
class ViewSupervisor--><g id="elem_ViewSupervisor"><rect codeLine="61" fill="#F1F1F1" height="48" id="ViewSupervisor" rx="2.5" ry="2.5" style="stroke:#181818;stroke-width:0.5;" width="137" x="724.5" y="425.5"/><ellipse cx="739.5" cy="441.5" fill="#ADD1B2" rx="11" ry="11" style="stroke:#181818;stroke-width:1.0;"/><path d="M742.4688,447.1406 Q741.8906,447.4375 741.25,447.5781 Q740.6094,447.7344 739.9063,447.7344 Q737.4063,447.7344 736.0781,446.0938 Q734.7656,444.4375 734.7656,441.3125 Q734.7656,438.1875 736.0781,436.5313 Q737.4063,434.875 739.9063,434.875 Q740.6094,434.875 741.25,435.0313 Q741.9063,435.1875 742.4688,435.4844 L742.4688,438.2031 Q741.8438,437.625 741.25,437.3594 Q740.6563,437.0781 740.0313,437.0781 Q738.6875,437.0781 738,438.1563 Q737.3125,439.2188 737.3125,441.3125 Q737.3125,443.4063 738,444.4844 Q738.6875,445.5469 740.0313,445.5469 Q740.6563,445.5469 741.25,445.2813 Q741.8438,445 742.4688,444.4219 L742.4688,447.1406 Z " fill="#000000"/><text fill="#000000" font-family="sans-serif" font-size="14" lengthAdjust="spacing" textLength="105" x="753.5" y="446.3467">ViewSupervisor</text><line style="stroke:#181818;stroke-width:0.5;" x1="725.5" x2="860.5" y1="457.5" y2="457.5"/><line style="stroke:#181818;stroke-width:0.5;" x1="725.5" x2="860.5" y1="465.5" y2="465.5"/></g><!--MD5=[fdc747ac5e19981d6a0069279d3e73fc]
reverse link GameInstance to GI_Agent--><g id="link_GameInstance_GI_Agent"><path d="M1920.43,150.32 C1913.05,165.16 1904.98,181.37 1898.62,194.15 " fill="none" id="GameInstance-backto-GI_Agent" style="stroke:#181818;stroke-width:1.0;"/><polygon fill="none" points="1914.37,146.8,1929.55,132.01,1926.9,153.03,1914.37,146.8" style="stroke:#181818;stroke-width:1.0;"/></g><!--MD5=[82e6b04b49bf393028e98e9be39cbd27]
reverse link GameInstance to GI_Human--><g id="link_GameInstance_GI_Human"><path d="M1969.64,148.33 C1980.83,163.7 1993.28,180.8 2003,194.15 " fill="none" id="GameInstance-backto-GI_Human" style="stroke:#181818;stroke-width:1.0;"/><polygon fill="none" points="1963.87,152.3,1957.75,132.01,1975.19,144.06,1963.87,152.3" style="stroke:#181818;stroke-width:1.0;"/></g><!--MD5=[e1f44aefd0d81999489aa86607f7cab8]
reverse link ServerListener to HumanSL--><g id="link_ServerListener_HumanSL"><path d="M1766.89,151.83 C1764.5,166.25 1761.92,181.8 1759.87,194.15 " fill="none" id="ServerListener-backto-HumanSL" style="stroke:#181818;stroke-width:1.0;"/><polygon fill="none" points="1760,150.59,1770.18,132.01,1773.81,152.89,1760,150.59" style="stroke:#181818;stroke-width:1.0;"/></g><!--MD5=[bd89a5a2f23487ba2706b9502b134bcf]
reverse link IMockView to AgentMockViewLauncher--><g id="link_IMockView_AgentMockViewLauncher"><path d="M205.5,381.2 C193.12,395.95 179.4,412.29 168.58,425.18 " fill="none" id="IMockView-backto-AgentMockViewLauncher" style="stroke:#181818;stroke-width:1.0;stroke-dasharray:7.0,7.0;"/><polygon fill="none" points="200.47,376.32,218.69,365.5,211.19,385.32,200.47,376.32" style="stroke:#181818;stroke-width:1.0;"/></g><!--MD5=[ef2d3ad9cc5bf6ae472aa84cd1730d3c]
reverse link IMockView to MockViewLauncher--><g id="link_IMockView_MockViewLauncher"><path d="M282.38,378.14 C301.69,393.65 323.79,411.39 340.96,425.18 " fill="none" id="IMockView-backto-MockViewLauncher" style="stroke:#181818;stroke-width:1.0;stroke-dasharray:7.0,7.0;"/><polygon fill="none" points="277.85,383.48,266.64,365.5,286.62,372.57,277.85,383.48" style="stroke:#181818;stroke-width:1.0;"/></g><!--MD5=[25462df387b2153b199f76250c314ec0]
@startuml
package view {
        class Launcher
        
        package json {
        }
        
      

        package clientcontroller {
            enum EClientInformation
            enum EConnectionLoss
            enum EGameState
            abstract class GameInstance
            class GI_Agent extends GameInstance
            class GI_Human extends GameInstance
            class RemotePlayer
            class HumanSL extends ServerListener
            abstract class ServerListener 
            class ServerListenerFactory 
        }

        package lib {
            enum EAgentDifficulty
            enum EAnimation
            enum EFigure
            enum EGamePhase
            enum EModifier
            enum EPopUp
            enum ERotation
            enum EShopAction
            enum EShopState
            enum EUpgradeCard
            enum OutErr
            class RCheckpointMask
            class RCoordinate
            class RGearMask
            class RImageMask
            class RLaserMask
            class RPopUpMask
            class RRegisterCard
            class RRotation
            class RShopAction
        }

        package scenecontrollers {
            class EndSceneJFXController
            class GameJFXController
            class LobbyJFXController_v2
            class MainMenuJFXController
        }

        package viewcontroller {
            class AgentMockViewLauncher implements IMockView
            interface IMockView
            class MockViewLauncher implements IMockView
            class RGameScene
            class RobotView
            class SceneController
            class Tile
            class TileModifier
            class ViewSupervisor
        }
    }
@enduml

PlantUML version 1.2022.7(Mon Aug 22 17:01:30 UTC 2022)
(GPL source distribution)
Java Runtime: OpenJDK Runtime Environment
JVM: OpenJDK 64-Bit Server VM
Default Encoding: UTF-8
Language: en
Country: null
--></g></svg>