<?xml version="1.0" encoding="UTF-8" standalone="no"?><svg xmlns="http://www.w3.org/2000/svg" xmlns:xlink="http://www.w3.org/1999/xlink" contentStyleType="text/css" height="289px" preserveAspectRatio="none" style="width:938px;height:289px;background:#FFFFFF;" version="1.1" viewBox="0 0 938 289" width="938px" zoomAndPan="magnify"><defs/><g><!--MD5=[9be91256090289a87cadb0689b48b2e8]
cluster SEP--><g id="cluster_SEP"><path d="M8.5,6 L38.5,6 A3.75,3.75 0 0 1 41,8.5 L48,28.2969 L928.5,28.2969 A2.5,2.5 0 0 1 931,30.7969 L931,280 A2.5,2.5 0 0 1 928.5,282.5 L8.5,282.5 A2.5,2.5 0 0 1 6,280 L6,8.5 A2.5,2.5 0 0 1 8.5,6 " fill="none" style="stroke:#000000;stroke-width:1.5;"/><line style="stroke:#000000;stroke-width:1.5;" x1="6" x2="48" y1="28.2969" y2="28.2969"/><text fill="#000000" font-family="sans-serif" font-size="14" font-weight="bold" lengthAdjust="spacing" textLength="29" x="10" y="20.9951">SEP</text></g><!--MD5=[846b4120dcf26759a64ac9ed49ca7716]
cluster wrapper--><g id="cluster_wrapper"><path d="M430.5,49 L498.5,49 A3.75,3.75 0 0 1 501,51.5 L508,71.2969 L904.5,71.2969 A2.5,2.5 0 0 1 907,73.7969 L907,256 A2.5,2.5 0 0 1 904.5,258.5 L430.5,258.5 A2.5,2.5 0 0 1 428,256 L428,51.5 A2.5,2.5 0 0 1 430.5,49 " fill="none" style="stroke:#000000;stroke-width:1.5;"/><line style="stroke:#000000;stroke-width:1.5;" x1="428" x2="508" y1="71.2969" y2="71.2969"/><text fill="#000000" font-family="sans-serif" font-size="14" font-weight="bold" lengthAdjust="spacing" textLength="67" x="432" y="63.9951">wrapper</text></g><!--MD5=[db3170b8313bf70303600a68db1112cb]
class Launcher--><g id="elem_Launcher"><rect codeLine="4" fill="#F1F1F1" height="48" id="Launcher" rx="2.5" ry="2.5" style="stroke:#181818;stroke-width:0.5;" width="96" x="206" y="84"/><ellipse cx="221" cy="100" fill="#ADD1B2" rx="11" ry="11" style="stroke:#181818;stroke-width:1.0;"/><path d="M223.9688,105.6406 Q223.3906,105.9375 222.75,106.0781 Q222.1094,106.2344 221.4063,106.2344 Q218.9063,106.2344 217.5781,104.5938 Q216.2656,102.9375 216.2656,99.8125 Q216.2656,96.6875 217.5781,95.0313 Q218.9063,93.375 221.4063,93.375 Q222.1094,93.375 222.75,93.5313 Q223.4063,93.6875 223.9688,93.9844 L223.9688,96.7031 Q223.3438,96.125 222.75,95.8594 Q222.1563,95.5781 221.5313,95.5781 Q220.1875,95.5781 219.5,96.6563 Q218.8125,97.7188 218.8125,99.8125 Q218.8125,101.9063 219.5,102.9844 Q220.1875,104.0469 221.5313,104.0469 Q222.1563,104.0469 222.75,103.7813 Q223.3438,103.5 223.9688,102.9219 L223.9688,105.6406 Z " fill="#000000"/><text fill="#000000" font-family="sans-serif" font-size="14" lengthAdjust="spacing" textLength="64" x="235" y="104.8467">Launcher</text><line style="stroke:#181818;stroke-width:0.5;" x1="207" x2="301" y1="116" y2="116"/><line style="stroke:#181818;stroke-width:0.5;" x1="207" x2="301" y1="124" y2="124"/></g><!--MD5=[55031ba9e430c2c1868f6d9daad9afb8]
class EArgs--><g id="elem_EArgs"><rect codeLine="6" fill="#F1F1F1" height="48" id="EArgs" rx="2.5" ry="2.5" style="stroke:#181818;stroke-width:0.5;" width="72" x="337" y="84"/><ellipse cx="352" cy="100" fill="#EB937F" rx="11" ry="11" style="stroke:#181818;stroke-width:1.0;"/><path d="M356.1094,106 L348.3906,106 L348.3906,93.6094 L356.1094,93.6094 L356.1094,95.7656 L350.8438,95.7656 L350.8438,98.4375 L355.6094,98.4375 L355.6094,100.5938 L350.8438,100.5938 L350.8438,103.8438 L356.1094,103.8438 L356.1094,106 Z " fill="#000000"/><text fill="#000000" font-family="sans-serif" font-size="14" lengthAdjust="spacing" textLength="40" x="366" y="104.8467">EArgs</text><line style="stroke:#181818;stroke-width:0.5;" x1="338" x2="408" y1="116" y2="116"/><line style="stroke:#181818;stroke-width:0.5;" x1="338" x2="408" y1="124" y2="124"/></g><!--MD5=[ff5b00e4f788038bc8b9934b246a9c20]
class Types--><g id="elem_Types"><rect codeLine="8" fill="#F1F1F1" height="48" id="Types" rx="2.5" ry="2.5" style="stroke:#181818;stroke-width:0.5;" width="74" x="217" y="194.5"/><ellipse cx="232" cy="210.5" fill="#ADD1B2" rx="11" ry="11" style="stroke:#181818;stroke-width:1.0;"/><path d="M234.9688,216.1406 Q234.3906,216.4375 233.75,216.5781 Q233.1094,216.7344 232.4063,216.7344 Q229.9063,216.7344 228.5781,215.0938 Q227.2656,213.4375 227.2656,210.3125 Q227.2656,207.1875 228.5781,205.5313 Q229.9063,203.875 232.4063,203.875 Q233.1094,203.875 233.75,204.0313 Q234.4063,204.1875 234.9688,204.4844 L234.9688,207.2031 Q234.3438,206.625 233.75,206.3594 Q233.1563,206.0781 232.5313,206.0781 Q231.1875,206.0781 230.5,207.1563 Q229.8125,208.2188 229.8125,210.3125 Q229.8125,212.4063 230.5,213.4844 Q231.1875,214.5469 232.5313,214.5469 Q233.1563,214.5469 233.75,214.2813 Q234.3438,214 234.9688,213.4219 L234.9688,216.1406 Z " fill="#000000"/><text fill="#000000" font-family="sans-serif" font-size="14" lengthAdjust="spacing" textLength="42" x="246" y="215.3467">Types</text><line style="stroke:#181818;stroke-width:0.5;" x1="218" x2="290" y1="226.5" y2="226.5"/><line style="stroke:#181818;stroke-width:0.5;" x1="218" x2="290" y1="234.5" y2="234.5"/></g><path d="M110,81.5 L154,81.5 A3.75,3.75 0 0 1 156.5,84 L163.5,103.7969 L168,103.7969 A2.5,2.5 0 0 1 170.5,106.2969 L170.5,131.5938 A2.5,2.5 0 0 1 168,134.0938 L110,134.0938 A2.5,2.5 0 0 1 107.5,131.5938 L107.5,84 A2.5,2.5 0 0 1 110,81.5 " fill="#F1F1F1" style="stroke:#181818;stroke-width:0.5;"/><line style="stroke:#181818;stroke-width:0.5;" x1="107.5" x2="163.5" y1="103.7969" y2="103.7969"/><text fill="#000000" font-family="sans-serif" font-size="14" lengthAdjust="spacing" textLength="43" x="111.5" y="96.4951">server</text><path d="M24.5,81.5 L55.5,81.5 A3.75,3.75 0 0 1 58,84 L65,103.7969 L69.5,103.7969 A2.5,2.5 0 0 1 72,106.2969 L72,131.5938 A2.5,2.5 0 0 1 69.5,134.0938 L24.5,134.0938 A2.5,2.5 0 0 1 22,131.5938 L22,84 A2.5,2.5 0 0 1 24.5,81.5 " fill="#F1F1F1" style="stroke:#181818;stroke-width:0.5;"/><line style="stroke:#181818;stroke-width:0.5;" x1="22" x2="65" y1="103.7969" y2="103.7969"/><text fill="#000000" font-family="sans-serif" font-size="14" lengthAdjust="spacing" textLength="30" x="26" y="96.4951">view</text><!--MD5=[1fc98c7d463bc6c21d6b73b69de0db95]
class AgentConfigJFXController--><g id="elem_AgentConfigJFXController"><rect codeLine="22" fill="#F1F1F1" height="48" id="AgentConfigJFXController" rx="2.5" ry="2.5" style="stroke:#181818;stroke-width:0.5;" width="204" x="444" y="84"/><ellipse cx="459" cy="100" fill="#ADD1B2" rx="11" ry="11" style="stroke:#181818;stroke-width:1.0;"/><path d="M461.9688,105.6406 Q461.3906,105.9375 460.75,106.0781 Q460.1094,106.2344 459.4063,106.2344 Q456.9063,106.2344 455.5781,104.5938 Q454.2656,102.9375 454.2656,99.8125 Q454.2656,96.6875 455.5781,95.0313 Q456.9063,93.375 459.4063,93.375 Q460.1094,93.375 460.75,93.5313 Q461.4063,93.6875 461.9688,93.9844 L461.9688,96.7031 Q461.3438,96.125 460.75,95.8594 Q460.1563,95.5781 459.5313,95.5781 Q458.1875,95.5781 457.5,96.6563 Q456.8125,97.7188 456.8125,99.8125 Q456.8125,101.9063 457.5,102.9844 Q458.1875,104.0469 459.5313,104.0469 Q460.1563,104.0469 460.75,103.7813 Q461.3438,103.5 461.9688,102.9219 L461.9688,105.6406 Z " fill="#000000"/><text fill="#000000" font-family="sans-serif" font-size="14" lengthAdjust="spacing" textLength="172" x="473" y="104.8467">AgentConfigJFXController</text><line style="stroke:#181818;stroke-width:0.5;" x1="445" x2="647" y1="116" y2="116"/><line style="stroke:#181818;stroke-width:0.5;" x1="445" x2="647" y1="124" y2="124"/></g><!--MD5=[8fe730ccb2fcd669c1a1b3b1e6f51961]
class ServerConfigJFXController--><g id="elem_ServerConfigJFXController"><rect codeLine="23" fill="#F1F1F1" height="48" id="ServerConfigJFXController" rx="2.5" ry="2.5" style="stroke:#181818;stroke-width:0.5;" width="207" x="683.5" y="84"/><ellipse cx="698.5" cy="100" fill="#ADD1B2" rx="11" ry="11" style="stroke:#181818;stroke-width:1.0;"/><path d="M701.4688,105.6406 Q700.8906,105.9375 700.25,106.0781 Q699.6094,106.2344 698.9063,106.2344 Q696.4063,106.2344 695.0781,104.5938 Q693.7656,102.9375 693.7656,99.8125 Q693.7656,96.6875 695.0781,95.0313 Q696.4063,93.375 698.9063,93.375 Q699.6094,93.375 700.25,93.5313 Q700.9063,93.6875 701.4688,93.9844 L701.4688,96.7031 Q700.8438,96.125 700.25,95.8594 Q699.6563,95.5781 699.0313,95.5781 Q697.6875,95.5781 697,96.6563 Q696.3125,97.7188 696.3125,99.8125 Q696.3125,101.9063 697,102.9844 Q697.6875,104.0469 699.0313,104.0469 Q699.6563,104.0469 700.25,103.7813 Q700.8438,103.5 701.4688,102.9219 L701.4688,105.6406 Z " fill="#000000"/><text fill="#000000" font-family="sans-serif" font-size="14" lengthAdjust="spacing" textLength="175" x="712.5" y="104.8467">ServerConfigJFXController</text><line style="stroke:#181818;stroke-width:0.5;" x1="684.5" x2="889.5" y1="116" y2="116"/><line style="stroke:#181818;stroke-width:0.5;" x1="684.5" x2="889.5" y1="124" y2="124"/></g><!--MD5=[354495e11b5abab1b1401337b6fa44d1]
class Wrapper--><g id="elem_Wrapper"><rect codeLine="24" fill="#F1F1F1" height="48" id="Wrapper" rx="2.5" ry="2.5" style="stroke:#181818;stroke-width:0.5;" width="90" x="501" y="194.5"/><ellipse cx="516" cy="210.5" fill="#ADD1B2" rx="11" ry="11" style="stroke:#181818;stroke-width:1.0;"/><path d="M518.9688,216.1406 Q518.3906,216.4375 517.75,216.5781 Q517.1094,216.7344 516.4063,216.7344 Q513.9063,216.7344 512.5781,215.0938 Q511.2656,213.4375 511.2656,210.3125 Q511.2656,207.1875 512.5781,205.5313 Q513.9063,203.875 516.4063,203.875 Q517.1094,203.875 517.75,204.0313 Q518.4063,204.1875 518.9688,204.4844 L518.9688,207.2031 Q518.3438,206.625 517.75,206.3594 Q517.1563,206.0781 516.5313,206.0781 Q515.1875,206.0781 514.5,207.1563 Q513.8125,208.2188 513.8125,210.3125 Q513.8125,212.4063 514.5,213.4844 Q515.1875,214.5469 516.5313,214.5469 Q517.1563,214.5469 517.75,214.2813 Q518.3438,214 518.9688,213.4219 L518.9688,216.1406 Z " fill="#000000"/><text fill="#000000" font-family="sans-serif" font-size="14" lengthAdjust="spacing" textLength="58" x="530" y="215.3467">Wrapper</text><line style="stroke:#181818;stroke-width:0.5;" x1="502" x2="590" y1="226.5" y2="226.5"/><line style="stroke:#181818;stroke-width:0.5;" x1="502" x2="590" y1="234.5" y2="234.5"/></g><!--MD5=[5b4bc7ed3604ebcd925a67186f4c9101]
class WrapperJFXController--><g id="elem_WrapperJFXController"><rect codeLine="25" fill="#F1F1F1" height="48" id="WrapperJFXController" rx="2.5" ry="2.5" style="stroke:#181818;stroke-width:0.5;" width="177" x="626.5" y="194.5"/><ellipse cx="641.5" cy="210.5" fill="#ADD1B2" rx="11" ry="11" style="stroke:#181818;stroke-width:1.0;"/><path d="M644.4688,216.1406 Q643.8906,216.4375 643.25,216.5781 Q642.6094,216.7344 641.9063,216.7344 Q639.4063,216.7344 638.0781,215.0938 Q636.7656,213.4375 636.7656,210.3125 Q636.7656,207.1875 638.0781,205.5313 Q639.4063,203.875 641.9063,203.875 Q642.6094,203.875 643.25,204.0313 Q643.9063,204.1875 644.4688,204.4844 L644.4688,207.2031 Q643.8438,206.625 643.25,206.3594 Q642.6563,206.0781 642.0313,206.0781 Q640.6875,206.0781 640,207.1563 Q639.3125,208.2188 639.3125,210.3125 Q639.3125,212.4063 640,213.4844 Q640.6875,214.5469 642.0313,214.5469 Q642.6563,214.5469 643.25,214.2813 Q643.8438,214 644.4688,213.4219 L644.4688,216.1406 Z " fill="#000000"/><text fill="#000000" font-family="sans-serif" font-size="14" lengthAdjust="spacing" textLength="145" x="655.5" y="215.3467">WrapperJFXController</text><line style="stroke:#181818;stroke-width:0.5;" x1="627.5" x2="802.5" y1="226.5" y2="226.5"/><line style="stroke:#181818;stroke-width:0.5;" x1="627.5" x2="802.5" y1="234.5" y2="234.5"/></g><!--MD5=[b173d210405a594ef369e81010d9058a]
@startuml
package SEP {
  
   
    class Launcher
  
    enum EArgs
  
    class Types
  
  
  

    package server {
      }
  
    package view {
      }

   

    package wrapper {
        class AgentConfigJFXController
        class ServerConfigJFXController
        class Wrapper
        class WrapperJFXController
    }
}
@enduml

PlantUML version 1.2022.7(Mon Aug 22 17:01:30 UTC 2022)
(GPL source distribution)
Java Runtime: OpenJDK Runtime Environment
JVM: OpenJDK 64-Bit Server VM
Default Encoding: UTF-8
Language: en
Country: null
--></g></svg>